<svg id="SvgjsSvg1006" width="722" height="812.3999938964844" xmlns="http://www.w3.org/2000/svg" version="1.1" xmlns:xlink="http://www.w3.org/1999/xlink" xmlns:svgjs="http://svgjs.com/svgjs"><defs id="SvgjsDefs1007"><marker id="SvgjsMarker1095" markerWidth="16" markerHeight="16" refX="11" refY="8" viewBox="0 0 16 16" orient="auto" markerUnits="userSpaceOnUse" stroke-dasharray="0,0"><path id="SvgjsPath1096" d="M0,0 L10,8 L0,16" fill="none" stroke="#323232" stroke-width="2"></path></marker><marker id="SvgjsMarker1103" markerWidth="16" markerHeight="16" refX="11" refY="8" viewBox="0 0 16 16" orient="auto" markerUnits="userSpaceOnUse" stroke-dasharray="0,0"><path id="SvgjsPath1104" d="M0,0 L10,8 L0,16" fill="none" stroke="#323232" stroke-width="2"></path></marker></defs><g id="SvgjsG1008" transform="translate(47.99998474121094,312.6166534423828)"><path id="SvgjsPath1009" d="M 23.333333333333332 12.5C 23.333333333333332 -4.166666666666666 46.666666666666664 -4.166666666666666 46.666666666666664 12.5C 46.666666666666664 29.166666666666668 23.333333333333332 29.166666666666668 23.333333333333332 12.5M 35 25L 35 75M 35 75L 5.833333333333333 100M 35 75L 64.16666666666666 100M 0 50L 70 50" stroke="rgba(50,50,50,1)" stroke-width="2" fill-opacity="1" fill="#ffffff"></path><path id="SvgjsPath1010" d="M 0 0L 70 0L 70 100L 0 100Z" stroke="none" fill="none"></path><g id="SvgjsG1011"><text id="SvgjsText1012" font-family="微软雅黑" text-anchor="middle" font-size="13px" width="110px" fill="#323232" font-weight="400" align="middle" lineHeight="125%" anchor="middle" family="微软雅黑" size="13px" weight="400" font-style="" opacity="1" y="104.375" transform="rotate(0)"></text></g></g><g id="SvgjsG1013" transform="translate(167.99998474121094,26.41665267944336)"><path id="SvgjsPath1014" d="M 0 4Q 0 0 4 0L 525.6666717529297 0Q 529.6666717529297 0 529.6666717529297 4L 529.6666717529297 756.2666664123535Q 529.6666717529297 760.2666664123535 525.6666717529297 760.2666664123535L 4 760.2666664123535Q 0 760.2666664123535 0 756.2666664123535Z" stroke="rgba(50,50,50,1)" stroke-width="2" fill-opacity="1" fill="#ffffff"></path><g id="SvgjsG1015"><text id="SvgjsText1016" font-family="微软雅黑" text-anchor="middle" font-size="13px" width="520px" fill="#323232" font-weight="400" align="middle" lineHeight="125%" anchor="middle" family="微软雅黑" size="13px" weight="400" font-style="" opacity="1" y="44.67976188659668" transform="rotate(0)"></text></g></g><g id="SvgjsG1017" transform="translate(361.99999237060547,25.01665496826172)"><path id="SvgjsPath1018" d="M 0 0L 120 0L 120 40L 0 40Z" stroke="none" fill="none"></path><g id="SvgjsG1019"><text id="SvgjsText1020" font-family="微软雅黑" text-anchor="middle" font-size="13px" width="120px" fill="#323232" font-weight="400" align="middle" lineHeight="125%" anchor="middle" family="微软雅黑" size="13px" weight="400" font-style="" opacity="1" y="9.375" transform="rotate(0)"><tspan id="SvgjsTspan1021" dy="16" x="60"><tspan id="SvgjsTspan1022" style="text-decoration:;">ESG评估平台</tspan></tspan></text></g></g><g id="SvgjsG1023" transform="translate(24.99999237060547,412.0166549682617)"><path id="SvgjsPath1024" d="M 0 0L 120 0L 120 40L 0 40Z" stroke="none" fill="none"></path><g id="SvgjsG1025"><text id="SvgjsText1026" font-family="微软雅黑" text-anchor="middle" font-size="13px" width="120px" fill="#323232" font-weight="400" align="middle" lineHeight="125%" anchor="middle" family="微软雅黑" size="13px" weight="400" font-style="" opacity="1" y="9.375" transform="rotate(0)"><tspan id="SvgjsTspan1027" dy="16" x="60"><tspan id="SvgjsTspan1028" style="text-decoration:;">用户</tspan></tspan></text></g></g><g id="SvgjsG1029" transform="translate(222.99999237060547,51.51665496826172)"><path id="SvgjsPath1030" d="M 0 35C 0 -11.666666666666666 100 -11.666666666666666 100 35C 100 81.66666666666667 0 81.66666666666667 0 35Z" stroke="rgba(50,50,50,1)" stroke-width="2" fill-opacity="1" fill="#ffffff"></path><g id="SvgjsG1031"><text id="SvgjsText1032" font-family="微软雅黑" text-anchor="middle" font-size="13px" width="80px" fill="#323232" font-weight="400" align="middle" lineHeight="125%" anchor="middle" family="微软雅黑" size="13px" weight="400" font-style="" opacity="1" y="24.375" transform="rotate(0)"><tspan id="SvgjsTspan1033" dy="16" x="50"><tspan id="SvgjsTspan1034" style="text-decoration:;">用户注册</tspan></tspan></text></g></g><g id="SvgjsG1035" transform="translate(222.99999237060547,142.51665496826172)"><path id="SvgjsPath1036" d="M 0 35C 0 -11.666666666666666 100 -11.666666666666666 100 35C 100 81.66666666666667 0 81.66666666666667 0 35Z" stroke="rgba(50,50,50,1)" stroke-width="2" fill-opacity="1" fill="#ffffff"></path><g id="SvgjsG1037"><text id="SvgjsText1038" font-family="微软雅黑" text-anchor="middle" font-size="13px" width="80px" fill="#323232" font-weight="400" align="middle" lineHeight="125%" anchor="middle" family="微软雅黑" size="13px" weight="400" font-style="" opacity="1" y="24.375" transform="rotate(0)"><tspan id="SvgjsTspan1039" dy="16" x="50"><tspan id="SvgjsTspan1040" style="text-decoration:;">用户登录</tspan></tspan></text></g></g><g id="SvgjsG1041" transform="translate(227.99999237060547,256.0166549682617)"><path id="SvgjsPath1042" d="M 0 35C 0 -11.666666666666666 100 -11.666666666666666 100 35C 100 81.66666666666667 0 81.66666666666667 0 35Z" stroke="rgba(50,50,50,1)" stroke-width="2" fill-opacity="1" fill="#ffffff"></path><g id="SvgjsG1043"><text id="SvgjsText1044" font-family="微软雅黑" text-anchor="middle" font-size="13px" width="80px" fill="#323232" font-weight="400" align="middle" lineHeight="125%" anchor="middle" family="微软雅黑" size="13px" weight="400" font-style="" opacity="1" y="24.375" transform="rotate(0)"><tspan id="SvgjsTspan1045" dy="16" x="50"><tspan id="SvgjsTspan1046" style="text-decoration:;">查看主页</tspan></tspan></text></g></g><g id="SvgjsG1047" transform="translate(227.99999237060547,369.5166549682617)"><path id="SvgjsPath1048" d="M 0 35C 0 -11.666666666666666 100 -11.666666666666666 100 35C 100 81.66666666666667 0 81.66666666666667 0 35Z" stroke="rgba(50,50,50,1)" stroke-width="2" fill-opacity="1" fill="#ffffff"></path><g id="SvgjsG1049"><text id="SvgjsText1050" font-family="微软雅黑" text-anchor="middle" font-size="13px" width="80px" fill="#323232" font-weight="400" align="middle" lineHeight="125%" anchor="middle" family="微软雅黑" size="13px" weight="400" font-style="" opacity="1" y="16.375" transform="rotate(0)"><tspan id="SvgjsTspan1051" dy="16" x="50"><tspan id="SvgjsTspan1052" style="text-decoration:;">查看ESG评级</tspan></tspan><tspan id="SvgjsTspan1053" dy="16" x="50"><tspan id="SvgjsTspan1054" style="text-decoration:;">数据</tspan></tspan></text></g></g><g id="SvgjsG1055" transform="translate(399.99999237060547,299.5166549682617)"><path id="SvgjsPath1056" d="M 0 35C 0 -11.666666666666666 100 -11.666666666666666 100 35C 100 81.66666666666667 0 81.66666666666667 0 35Z" stroke="rgba(50,50,50,1)" stroke-width="2" fill-opacity="1" fill="#ffffff"></path><g id="SvgjsG1057"><text id="SvgjsText1058" font-family="微软雅黑" text-anchor="middle" font-size="13px" width="80px" fill="#323232" font-weight="400" align="middle" lineHeight="125%" anchor="middle" family="微软雅黑" size="13px" weight="400" font-style="" opacity="1" y="16.375" transform="rotate(0)"><tspan id="SvgjsTspan1059" dy="16" x="50"><tspan id="SvgjsTspan1060" style="text-decoration:;">搜索ESG评级</tspan></tspan><tspan id="SvgjsTspan1061" dy="16" x="50"><tspan id="SvgjsTspan1062" style="text-decoration:;">数据</tspan></tspan></text></g></g><g id="SvgjsG1063" transform="translate(567.9999923706055,386.5166549682617)"><path id="SvgjsPath1064" d="M 0 35C 0 -11.666666666666666 100 -11.666666666666666 100 35C 100 81.66666666666667 0 81.66666666666667 0 35Z" stroke="rgba(50,50,50,1)" stroke-width="2" fill-opacity="1" fill="#ffffff"></path><g id="SvgjsG1065"><text id="SvgjsText1066" font-family="微软雅黑" text-anchor="middle" font-size="13px" width="80px" fill="#323232" font-weight="400" align="middle" lineHeight="125%" anchor="middle" family="微软雅黑" size="13px" weight="400" font-style="" opacity="1" y="24.375" transform="rotate(0)"><tspan id="SvgjsTspan1067" dy="16" x="50"><tspan id="SvgjsTspan1068" style="text-decoration:;">筛选搜索结果</tspan></tspan></text></g></g><g id="SvgjsG1069" transform="translate(222.99999237060547,469.7666549682617)"><path id="SvgjsPath1070" d="M 0 35C 0 -11.666666666666666 100 -11.666666666666666 100 35C 100 81.66666666666667 0 81.66666666666667 0 35Z" stroke="rgba(50,50,50,1)" stroke-width="2" fill-opacity="1" fill="#ffffff"></path><g id="SvgjsG1071"><text id="SvgjsText1072" font-family="微软雅黑" text-anchor="middle" font-size="13px" width="80px" fill="#323232" font-weight="400" align="middle" lineHeight="125%" anchor="middle" family="微软雅黑" size="13px" weight="400" font-style="" opacity="1" y="16.375" transform="rotate(0)"><tspan id="SvgjsTspan1073" dy="16" x="50"><tspan id="SvgjsTspan1074" style="text-decoration:;">查看具体公司</tspan></tspan><tspan id="SvgjsTspan1075" dy="16" x="50"><tspan id="SvgjsTspan1076" style="text-decoration:;">评级结果</tspan></tspan></text></g></g><g id="SvgjsG1077" transform="translate(222.99999237060547,570.0166549682617)"><path id="SvgjsPath1078" d="M 0 35C 0 -11.666666666666666 100 -11.666666666666666 100 35C 100 81.66666666666667 0 81.66666666666667 0 35Z" stroke="rgba(50,50,50,1)" stroke-width="2" fill-opacity="1" fill="#ffffff"></path><g id="SvgjsG1079"><text id="SvgjsText1080" font-family="微软雅黑" text-anchor="middle" font-size="13px" width="80px" fill="#323232" font-weight="400" align="middle" lineHeight="125%" anchor="middle" family="微软雅黑" size="13px" weight="400" font-style="" opacity="1" y="24.375" transform="rotate(0)"><tspan id="SvgjsTspan1081" dy="16" x="50"><tspan id="SvgjsTspan1082" style="text-decoration:;">关注公司</tspan></tspan></text></g></g><g id="SvgjsG1083" transform="translate(222.99999237060547,661.2666549682617)"><path id="SvgjsPath1084" d="M 0 35C 0 -11.666666666666666 100 -11.666666666666666 100 35C 100 81.66666666666667 0 81.66666666666667 0 35Z" stroke="rgba(50,50,50,1)" stroke-width="2" fill-opacity="1" fill="#ffffff"></path><g id="SvgjsG1085"><text id="SvgjsText1086" font-family="微软雅黑" text-anchor="middle" font-size="13px" width="80px" fill="#323232" font-weight="400" align="middle" lineHeight="125%" anchor="middle" family="微软雅黑" size="13px" weight="400" font-style="" opacity="1" y="24.375" transform="rotate(0)"><tspan id="SvgjsTspan1087" dy="16" x="50"><tspan id="SvgjsTspan1088" style="text-decoration:;">查看我的</tspan></tspan></text></g></g><g id="SvgjsG1089"><path id="SvgjsPath1090" d="M118.36419553609326 354.0853354450858L222.63578920511767 87.44797449143766" stroke="#323232" stroke-width="2" fill="none"></path></g><g id="SvgjsG1091"><path id="SvgjsPath1092" d="M118.49338855449804 361.7468530761874L222.50658855731834 178.38645533445717" stroke="#323232" stroke-width="2" fill="none"></path></g><g id="SvgjsG1093"><path id="SvgjsPath1094" d="M328.7169872894199 403.8195765749699L398.5660025329766 335.9108117548453" stroke-dasharray="3,3" stroke="#323232" stroke-width="2" fill="none" marker-end="url(#SvgjsMarker1095)"></path><rect id="SvgjsRect1097" width="87" height="16" x="320.14149491119827" y="361.8651941649076" fill="#ffffff"></rect><text id="SvgjsText1098" font-family="微软雅黑" text-anchor="middle" font-size="13px" width="87px" fill="#323232" font-weight="400" align="top" lineHeight="16px" anchor="middle" family="微软雅黑" size="13px" weight="400" font-style="" opacity="1" y="359.2401941649076" transform="rotate(0)"><tspan id="SvgjsTspan1099" dy="16" x="363.64149491119827"><tspan id="SvgjsTspan1100" style="text-decoration:;">&lt;&lt;extends&gt;&gt;</tspan></tspan></text></g><g id="SvgjsG1101"><path id="SvgjsPath1102" d="M500.6158121386494 335.3045420244356L566.7683528345176 419.940880855914" stroke-dasharray="3,3" stroke="#323232" stroke-width="2" fill="none" marker-end="url(#SvgjsMarker1103)"></path><rect id="SvgjsRect1105" width="87" height="16" x="490.19208248658356" y="369.6227114401748" fill="#ffffff"></rect><text id="SvgjsText1106" font-family="微软雅黑" text-anchor="middle" font-size="13px" width="87px" fill="#323232" font-weight="400" align="top" lineHeight="16px" anchor="middle" family="微软雅黑" size="13px" weight="400" font-style="" opacity="1" y="366.9977114401748" transform="rotate(0)"><tspan id="SvgjsTspan1107" dy="16" x="533.6920824865836"><tspan id="SvgjsTspan1108" style="text-decoration:;">&lt;&lt;extends&gt;&gt;</tspan></tspan></text></g><g id="SvgjsG1109"><path id="SvgjsPath1110" d="M118.83808006273455 362.071129628017L227.16189704908186 291.56217878262754" stroke="#323232" stroke-width="2" fill="none"></path></g><g id="SvgjsG1111"><path id="SvgjsPath1112" d="M118.95674113713068 362.90754379778616L228.47138088224438 396.2041620521112" stroke="#323232" stroke-width="2" fill="none"></path></g><g id="SvgjsG1113"><path id="SvgjsPath1114" d="M118.5941291891314 363.4210118046849L222.405847922685 503.96229660595964" stroke="#323232" stroke-width="2" fill="none"></path></g><g id="SvgjsG1115"><path id="SvgjsPath1116" d="M118.41345413525502 363.527171459881L224.19241811214536 596.4673937849665" stroke="#323232" stroke-width="2" fill="none"></path></g><g id="SvgjsG1117"><path id="SvgjsPath1118" d="M118.30017188678602 363.5705337690651L222.69980522503042 695.3127746415794" stroke="#323232" stroke-width="2" fill="none"></path></g></svg>